# xmcd CD database file
#
# Track frame offsets:
#	150
#	15047
#	36839
#	59841
#	77853
#	93183
#	106980
#	125959
#	143759
#	157530
#	169541
#	188910
#	204189
#	224835
#
# Disc length: 3173 seconds
#
# Revision: 0
# Processed by: cddbd v1.5.2PL0 Copyright (c) Steve Scherf et al.
# Submitted via: CDex 1.79
#
DISCID=b80c630e
DTITLE=Roger Netherton - Roger Netherton
DYEAR=2018
DGENRE=Country
TTITLE0=Tippin' Back the Corn
TTITLE1=John Stenson's No. 2
TTITLE2=Durang's Hornpipe
TTITLE3=Blue Moon Waltz
TTITLE4=Half Past Four
TTITLE5=Last of Harris
TTITLE6=Chips and Sauce
TTITLE7=Ways of the World
TTITLE8=Cherry River Rag
TTITLE9=Ol' Bob
TTITLE10=FarewellTrion
TTITLE11=So Sang the Mountain
TTITLE12=Ook Pik Waltz
TTITLE13=Fire on the Mountain
EXTD=YEAR: 2018
EXTT0=
EXTT1=
EXTT2=
EXTT3=
EXTT4=
EXTT5=
EXTT6=
EXTT7=
EXTT8=
EXTT9=
EXTT10=
EXTT11=
EXTT12=
EXTT13=
PLAYORDER=
